HIERARCHY
ROOT Hips
{
	OFFSET -0.001795 -0.223333 0.028219
	CHANNELS 6 Xposition Yposition Zposition Zrotation Yrotation Xrotation 
	JOINT LeftUpLeg
	{
		OFFSET 0.069520 -0.091406 -0.006815
		CHANNELS 3 Zrotation Yrotation Xrotation
		JOINT LeftLeg
		{
			OFFSET 0.034277 -0.375199 -0.004496
			CHANNELS 3 Zrotation Yrotation Xrotation
			JOINT LeftFoot
			{
				OFFSET -0.013596 -0.397961 -0.043693
				CHANNELS 3 Zrotation Yrotation Xrotation
				JOINT LeftToe
				{
					OFFSET 0.026358 -0.055791 0.119288
					CHANNELS 3 Zrotation Yrotation Xrotation
					End Site
					{
						OFFSET 0.000000 0.000000 0.000000
					}
				}
			}
		}
	}
	JOINT RightUpLeg
	{
		OFFSET -0.067670 -0.090522 -0.004320
		CHANNELS 3 Zrotation Yrotation Xrotation
		JOINT RightLeg
		{
			OFFSET -0.038290 -0.382569 -0.008850
			CHANNELS 3 Zrotation Yrotation Xrotation
			JOINT RightFoot
			{
				OFFSET 0.015774 -0.398415 -0.042312
				CHANNELS 3 Zrotation Yrotation Xrotation
				JOINT RightToe
				{
					OFFSET -0.025372 -0.048144 0.123348
					CHANNELS 3 Zrotation Yrotation Xrotation
					End Site
					{
						OFFSET 0.000000 0.000000 0.000000
					}
				}
			}
		}
	}
	JOINT Spine
	{
		OFFSET -0.002533 0.108963 -0.026696
		CHANNELS 3 Zrotation Yrotation Xrotation
		JOINT Spine1
		{
			OFFSET 0.005487 0.135180 0.001092
			CHANNELS 3 Zrotation Yrotation Xrotation
			JOINT Spine2
			{
				OFFSET 0.001457 0.052922 0.025425
				CHANNELS 3 Zrotation Yrotation Xrotation
				JOINT Neck
				{
					OFFSET -0.002778 0.213870 -0.042857
					CHANNELS 3 Zrotation Yrotation Xrotation
					JOINT Head
					{
						OFFSET 0.005152 0.064970 0.051349
						CHANNELS 3 Zrotation Yrotation Xrotation
						End Site
						{
							OFFSET 0.000000 0.000000 0.000000
						}
					}
				}
				JOINT LeftShoulder
				{
					OFFSET 0.078845 0.121749 -0.034090
					CHANNELS 3 Zrotation Yrotation Xrotation
					JOINT LeftArm
					{
						OFFSET 0.090977 0.030469 -0.008868
						CHANNELS 3 Zrotation Yrotation Xrotation
						JOINT LeftForeArm
						{
							OFFSET 0.259612 -0.012772 -0.027456
							CHANNELS 3 Zrotation Yrotation Xrotation
							JOINT LeftHand
							{
								OFFSET 0.249234 0.008986 -0.001171
								CHANNELS 3 Zrotation Yrotation Xrotation
								End Site
								{
									OFFSET 0.000000 0.000000 0.000000
								}
							}
						}
					}
				}
				JOINT RightShoulder
				{
					OFFSET -0.081759 0.118833 -0.038615
					CHANNELS 3 Zrotation Yrotation Xrotation
					JOINT RightArm
					{
						OFFSET -0.096012 0.032551 -0.009143
						CHANNELS 3 Zrotation Yrotation Xrotation
						JOINT RightForeArm
						{
							OFFSET -0.253742 -0.013329 -0.021401
							CHANNELS 3 Zrotation Yrotation Xrotation
							JOINT RightHand
							{
								OFFSET -0.255298 0.007772 -0.005559
								CHANNELS 3 Zrotation Yrotation Xrotation
								End Site
								{
									OFFSET 0.000000 0.000000 0.000000
								}
							}
						}
					}
				}
			}
		}
	}
}
MOTION
Frames: 13
Frame Time: 0.050000
-1.181459 0.950125 0.046446 -4.346337 -37.367760 -0.050512 -1.579813 0.616946 4.750447 -2.733482 0.571644 -1.106912 1.678157 3.793906 4.159472 0.000000 0.000000 0.000000 0.022818 1.580996 -13.574398 4.795451 1.790398 22.193158 -9.220970 -21.663611 6.360812 0.000000 0.000000 0.000000 -4.845518 1.840079 21.670311 10.495870 -2.191066 -22.659345 0.058834 -6.354673 24.802440 -6.507556 0.940226 -32.218527 0.000000 0.000000 0.000000 -32.812715 7.917333 3.502870 -6.973351 13.969936 -1.436762 -105.489047 -9.203626 11.786908 0.000000 0.000000 0.000000 9.077048 4.895281 -2.446864 9.629767 -18.353238 -1.796730 110.546149 -3.745045 -26.192079 0.000000 0.000000 0.000000 
-1.200264 0.949826 0.066453 -4.096393 -33.350013 -0.108805 -1.724637 0.971129 7.013698 -1.210352 0.267836 -2.315597 -0.295219 -0.214725 3.039334 0.000000 0.000000 0.000000 -0.325569 1.903188 -15.590304 4.168038 0.784914 15.186661 -6.543959 -17.906357 7.248234 0.000000 0.000000 0.000000 -4.064038 1.468994 21.716758 10.047979 -1.950763 -23.730402 -0.344213 -5.757928 25.686923 -5.438486 0.777227 -31.914133 0.000000 0.000000 0.000000 -33.284341 7.512038 2.838697 -6.120422 13.174326 -1.158879 -105.323768 -8.895869 10.565135 0.000000 0.000000 0.000000 10.119584 4.165116 -2.637416 9.006622 -17.708491 -1.596141 110.296318 -3.661646 -24.406011 0.000000 0.000000 0.000000 
-1.219681 0.947986 0.088344 -3.561262 -30.122822 0.479286 -2.016811 1.053385 7.553029 -0.983252 0.222732 -2.484046 -2.112912 -4.011653 2.686498 0.000000 0.000000 0.000000 0.010287 2.327681 -17.898637 3.902331 0.225219 9.144161 -4.162991 -14.330023 8.134836 0.000000 0.000000 0.000000 -2.970171 0.918745 20.258908 9.056159 -2.075643 -21.724625 -0.500042 -5.617357 23.858540 -6.760816 1.847482 -29.937176 0.000000 0.000000 0.000000 -32.433499 7.942929 1.459834 -7.279781 13.660926 -1.480060 -104.340103 -6.353180 7.772531 0.000000 0.000000 0.000000 10.424430 4.740263 -2.155463 9.101216 -17.783378 -1.597541 110.784581 -3.223592 -22.601517 0.000000 0.000000 0.000000 
-1.239943 0.946710 0.113045 -2.591864 -27.667745 0.070048 -2.654607 1.377836 9.292206 1.285592 -0.143228 -1.412861 -3.620640 -7.373033 1.788356 0.000000 0.000000 0.000000 0.967231 2.330027 -17.594983 3.627703 -0.011567 4.694081 -2.003067 -10.437599 8.405516 0.000000 0.000000 0.000000 -2.882395 0.788365 20.199267 8.701907 -1.714715 -23.877850 -1.161301 -4.528084 26.092688 -6.605731 2.043420 -31.084992 0.000000 0.000000 0.000000 -32.887287 7.252717 1.195020 -5.968751 14.424889 -1.044439 -103.641980 -4.869613 4.267838 0.000000 0.000000 0.000000 13.082104 4.278255 -2.712048 6.198040 -17.463008 -0.893805 111.568017 -2.788971 -20.428531 0.000000 0.000000 0.000000 
-1.261087 0.943526 0.140535 -2.214660 -24.627451 0.269368 -2.393358 1.581992 10.649153 2.511126 -0.321332 -1.007502 -5.649075 -11.684848 1.689168 0.000000 0.000000 0.000000 2.268258 2.451648 -17.698822 2.586906 0.036708 4.744755 0.592903 -6.821277 11.046960 0.000000 0.000000 0.000000 -2.209544 0.414436 18.563454 7.515346 -1.603230 -22.860515 -0.482124 -4.800155 25.927187 -7.110351 2.563136 -29.847112 0.000000 0.000000 0.000000 -32.787683 7.956645 0.027406 -6.075297 14.616061 -1.057231 -103.391843 -3.826373 2.956413 0.000000 0.000000 0.000000 12.810474 4.918632 -2.060843 6.181334 -19.435152 -0.978197 111.814626 -1.698555 -18.097257 0.000000 0.000000 0.000000 
-1.282671 0.941002 0.170134 -1.622720 -21.359003 -0.066304 -1.203914 1.731485 12.302099 2.636859 -0.434325 1.494040 -6.705258 -14.699567 0.163352 0.000000 0.000000 0.000000 2.221635 2.216712 -16.667454 2.029984 0.088911 5.401264 -0.524259 -8.055504 10.228783 0.000000 0.000000 0.000000 -1.573809 0.138964 17.496532 7.240244 -1.437733 -23.535158 -0.654980 -4.063728 27.570822 -7.127467 2.969147 -29.494296 0.000000 0.000000 0.000000 -32.854027 7.326504 -0.443568 -4.928478 15.460920 -0.666587 -104.385002 -3.482823 1.629561 0.000000 0.000000 0.000000 14.095030 3.254346 -2.582789 4.578581 -20.010855 -0.579961 111.546009 -0.935652 -15.734166 0.000000 0.000000 0.000000 
-1.303776 0.938977 0.200024 -1.367380 -19.000168 0.224805 -0.471517 1.710890 12.877328 3.901617 -0.733913 4.047798 -7.375805 -16.105735 0.348599 0.000000 0.000000 0.000000 2.660394 2.015684 -15.410001 2.349070 0.085443 6.486323 -1.110592 -8.176886 8.818962 0.000000 0.000000 0.000000 -1.504227 0.025104 16.553951 7.755993 -1.598616 -22.987252 -0.993228 -3.791311 27.628243 -6.818844 3.062927 -29.244838 0.000000 0.000000 0.000000 -31.964962 8.326749 -1.942324 -4.571293 16.272879 -0.507665 -104.919985 -3.214667 1.343905 0.000000 0.000000 0.000000 15.432116 2.398952 -2.940814 2.942102 -20.200831 -0.118179 111.915215 0.871335 -12.084606 0.000000 0.000000 0.000000 
-1.324051 0.939690 0.228656 -1.435932 -15.989103 0.812640 0.457442 1.268664 10.884192 4.038610 -0.995368 10.558246 -6.665741 -15.289125 -0.963591 0.000000 0.000000 0.000000 2.494930 1.789372 -14.266188 3.646891 -0.070565 7.424383 -2.372390 -9.528293 7.053114 0.000000 0.000000 0.000000 -1.309838 -0.123100 14.442276 8.149597 -1.801913 -21.762246 -0.476705 -3.693565 27.556659 -8.547434 4.474284 -27.232335 0.000000 0.000000 0.000000 -32.055152 8.978669 -3.238514 -3.917196 16.623977 -0.269995 -104.717303 -2.004377 -0.663456 0.000000 0.000000 0.000000 15.808257 1.891035 -2.821510 2.117464 -20.179823 0.141258 111.223353 2.602764 -8.616589 0.000000 0.000000 0.000000 
-1.342780 0.942136 0.255120 -2.018241 -13.677030 1.200704 3.223151 0.632136 7.122406 2.765937 -0.832207 19.189102 -6.338247 -14.006033 -0.200346 0.000000 0.000000 0.000000 2.890724 1.684024 -13.452511 4.934924 -0.242978 8.860226 -2.897222 -9.728502 5.426740 0.000000 0.000000 0.000000 -0.668511 -0.262906 13.932318 9.376378 -1.938369 -22.769010 -1.074887 -2.543633 27.830720 -9.476759 5.479200 -26.820736 0.000000 0.000000 0.000000 -32.970905 9.862007 -5.019138 -1.474149 16.575375 0.524426 -104.980820 -0.454509 -3.778490 0.000000 0.000000 0.000000 15.507262 1.616065 -2.302246 1.876840 -20.003563 0.247206 111.516244 3.241396 -7.077461 0.000000 0.000000 0.000000 
-1.359054 0.943846 0.278991 -1.740152 -11.701385 0.088369 5.294505 0.234967 2.612626 -0.922433 0.608566 30.053788 -3.300540 -6.253737 1.884903 0.000000 0.000000 0.000000 2.653184 1.193903 -10.222832 6.255910 -0.488087 8.267075 -3.503983 -10.440009 4.406523 0.000000 0.000000 0.000000 -0.367049 -0.335723 14.302733 7.643235 -1.630155 -21.850759 1.114334 -2.112534 27.035301 -11.249693 6.909621 -25.715678 0.000000 0.000000 0.000000 -33.371039 8.739197 -4.916788 -0.646632 16.804920 0.768151 -106.658561 0.083944 -4.867469 0.000000 0.000000 0.000000 13.550545 0.780455 -1.991300 3.215688 -20.544883 -0.122097 112.172765 2.606674 -7.710870 0.000000 0.000000 0.000000 
-1.372415 0.946005 0.300449 -1.644225 -9.266841 -0.683363 7.270648 0.038993 -2.188736 -2.985699 1.614352 37.626617 -0.641470 -0.731244 1.606674 0.000000 0.000000 0.000000 3.050528 0.782857 -6.994023 6.227463 -0.550441 7.087057 -4.417235 -12.269113 4.493320 0.000000 0.000000 0.000000 -0.484406 -0.374203 15.237066 8.376129 -1.537121 -24.096802 0.438179 -1.143941 28.983401 -9.639548 6.429013 -24.663967 0.000000 0.000000 0.000000 -35.097223 9.744387 -6.870396 2.444794 15.613011 1.630952 -107.529138 0.485962 -6.610272 0.000000 0.000000 0.000000 13.617414 0.624008 -1.575515 2.651970 -21.164218 0.066208 112.793706 2.286414 -7.777115 0.000000 0.000000 0.000000 
-1.382639 0.948190 0.320060 -1.375449 -8.253255 -1.149815 7.625937 -0.031968 -5.352200 -5.316993 2.754652 39.864183 3.104012 6.796588 0.812236 0.000000 0.000000 0.000000 2.963982 0.519173 -4.929071 6.993985 -0.680247 6.501416 -5.080311 -13.765183 5.154651 0.000000 0.000000 0.000000 -1.330812 -0.275698 15.724035 8.474595 -1.616595 -23.541597 1.435707 0.264567 28.247357 -10.232179 7.172562 -24.086747 0.000000 0.000000 0.000000 -35.965831 9.636820 -7.892426 3.686556 16.036277 1.980792 -108.513894 0.692511 -7.075487 0.000000 0.000000 0.000000 13.263287 0.747555 -1.114616 2.587976 -20.636173 0.120400 113.814694 2.462941 -6.748875 0.000000 0.000000 0.000000 
-1.390183 0.949692 0.338201 -1.369357 -6.426915 -1.277167 7.670055 -0.118032 -8.077485 -6.484503 2.869752 38.511500 5.360218 11.352678 0.582496 0.000000 0.000000 0.000000 2.838875 0.184969 -2.184615 7.383386 -0.743664 4.195391 -5.682979 -14.959808 5.288290 0.000000 0.000000 0.000000 -2.052440 -0.213072 15.804953 9.723939 -1.864394 -23.825669 1.258840 1.898847 29.211515 -10.043417 7.515207 -24.171606 0.000000 0.000000 0.000000 -37.350803 9.480629 -9.286161 5.822036 16.298308 2.568123 -107.893677 2.072886 -9.387221 0.000000 0.000000 0.000000 12.612410 0.541171 -0.665056 3.131882 -20.972969 0.003368 113.628855 1.949884 -6.654575 0.000000 0.000000 0.000000 
